# xmcd
# 
# Track frame offsets:
#     150
#     62870
#     89150
#     126302
#     163142
#     188690
#     232850
# 
# Disc length: 3576
# 
# Revision: 1
# Processed by: cddbd v1.5.2PL0 Copyright (c) Steve Scherf et al.
# Submitted via: BonkEnc v1.0.8
# 
DISCID=5e0df607
DTITLE=Don Sebesky - Giant Box
DYEAR=1973
DGENRE=Fusion
TTITLE0=Firebird/Bird Of Fire
TTITLE1=Song To A Seagull
TTITLE2=Free As A Bird
TTITLE3=Psalm 150
TTITLE4=Vocalise
TTITLE5=Fly/Circles
TTITLE6=Semi-tough
EXTD=YEAR: 1973
EXTT0=
EXTT1=
EXTT2=
EXTT3=
EXTT4=
EXTT5=
EXTT6=
PLAYORDER=
